<svg xmlns="http://www.w3.org/2000/svg" viewBox="0 0 138.9 138.9"><defs><style>.cls-1{fill:#ba1818;}.cls-2{fill:#8f7673;}</style></defs><title>aidkit</title><g id="Layer_2" data-name="Layer 2"><g id="Layer_1-2" data-name="Layer 1"><path class="cls-1" d="M56,92.89h0Z"/><path class="cls-1" d="M45.43,95.7c15.21-.16,30.41,0,45.61-.07,7,0,10.35-3.39,10.38-10.36q.06-14.23,0-28.47c0-7-3.38-10.36-10.33-10.41-3.49,0-7,0-10.58,0-.06-1.08-.11-1.85-.13-2.62s0-1.59,0-2.37c-.18-2.47-1.52-4-4-4q-8.7-.15-17.4,0c-2.47.05-3.8,1.55-3.94,4.05-.08,1.54,0,3.1,0,4.89-3.4,0-6.47.15-9.51,0C40,46,35.93,47.9,33.93,53.3V88.63C35.86,94.1,39.92,95.76,45.43,95.7ZM57.81,41.9a2.78,2.78,0,0,1,1.89-1.8C65,40,70.24,40.05,75.51,40c1.61,0,2.22.72,2.16,2.24,0,1.22,0,2.45,0,4H57.72A20.7,20.7,0,0,1,57.81,41.9ZM36.69,56.74c0-5.45,2.28-7.63,7.78-7.63q23.18,0,46.37,0c5.6,0,7.81,2.21,7.84,7.84q.06,14.1,0,28.19c0,5.63-2.21,7.72-7.92,7.74H44.39c-5.47,0-7.67-2.18-7.7-7.68Q36.62,71,36.69,56.74Z"/><path class="cls-1" d="M53.84,74.27a2.18,2.18,0,0,0,2.42,2.46c1.65,0,3.29,0,5.24,0,0,1.88,0,3.44,0,5,0,1.78.81,2.78,2.73,2.74,2.28,0,4.57-.06,6.85,0,1.9,0,2.75-.9,2.78-2.7,0-1.62,0-3.24,0-5,1.87,0,3.27,0,4.67,0,2.06.06,3.1-.81,3-3s-.06-4.21,0-6.32-.87-3.1-3-3c-1.46,0-2.93,0-4.69,0,0-1.73,0-3.2,0-4.67,0-2.07-.9-3.09-3-3s-4,.07-6,0c-2.34-.09-3.43.91-3.33,3.27.06,1.45,0,2.89,0,4.45-1.85,0-3.25,0-4.65,0-2.08-.06-3.08.86-3,3C53.89,69.7,53.85,72,53.84,74.27Zm2.92-7c1.66,0,3.31-.06,5,0,1.93.09,2.71-.79,2.64-2.67-.06-1.56,0-3.12,0-4.86H71c0,1.49.11,2.88,0,4.24-.24,2.57.9,3.51,3.38,3.28,1.37-.13,2.77,0,4.28,0V74c-1.77,0-3.41,0-5,0S71,74.67,71,76.45s0,3.31,0,5.16H64.34c0-1.6-.09-3.07,0-4.53.19-2.44-.91-3.34-3.27-3.15-1.38.11-2.78,0-4.33,0Z"/><path class="cls-2" d="M69.45,138.9A69.45,69.45,0,1,1,138.9,69.45,69.45,69.45,0,0,1,69.45,138.9ZM69.45.44a69,69,0,1,0,69,69h0A69.09,69.09,0,0,0,69.45.44Z"/><path class="cls-2" d="M70.81,132.83a66.42,66.42,0,1,1,66.45-66.41A66.42,66.42,0,0,1,70.81,132.83ZM70.81.44a66,66,0,1,0,66,66v0A66,66,0,0,0,70.81.44Z"/><path class="cls-2" d="M67.76,132.83a63.37,63.37,0,1,1,63.37-63.37A63.37,63.37,0,0,1,67.76,132.83Zm0-126.27A62.95,62.95,0,1,0,130.7,69.5v0A63,63,0,0,0,67.76,6.52Z"/></g></g></svg>