<svg xmlns="http://www.w3.org/2000/svg" viewBox="0 0 138.9 138.9"><defs><style>.cls-1{fill:#8f7673;}.cls-2{fill:#ba1818;}</style></defs><title>bills</title><g id="Layer_2" data-name="Layer 2"><g id="Layer_1-2" data-name="Layer 1"><path class="cls-1" d="M69.45,138.9A69.45,69.45,0,1,1,138.9,69.45,69.45,69.45,0,0,1,69.45,138.9ZM69.45.44a69,69,0,1,0,69,69h0A69.09,69.09,0,0,0,69.45.44Z"/><path class="cls-1" d="M70.81,132.83a66.42,66.42,0,1,1,66.45-66.41A66.42,66.42,0,0,1,70.81,132.83ZM70.81.44a66,66,0,1,0,66,66v0A66,66,0,0,0,70.81.44Z"/><path class="cls-1" d="M67.76,132.83a63.37,63.37,0,1,1,63.37-63.37A63.37,63.37,0,0,1,67.76,132.83Zm0-126.27A62.95,62.95,0,1,0,130.7,69.5v0A63,63,0,0,0,67.76,6.52Z"/><path class="cls-2" d="M46.6,91.81q14.19,0,28.38,0c1.44,0,1.45-.62.93-1.7H47.49c-1.25,0-2.53,0-3.05-1.75H60.78c.53-1.57-.29-1.65-1.34-1.65-4.85,0-9.7,0-14.6,0,1-3.39,1-3.39,4.13-3.39H60.79l.34-.64c-.47-.35-.93-1-1.42-1-2.08-.12-4.17,0-6.2,0V44.48h32v2.4q0,9.84,0,19.69c0,1.49,0,1.49,1.74,1.18V49.45h2.43c1.33,0,2.83-.31,2.69,1.89,0,.21.89.48,1.53.8.51-6-4-3.77-6.7-4.6v-1.9c0-3,0-3-3-3H56.27c-4.42,0-4.42,0-4.64,4.32a4.83,4.83,0,0,1-.19.77H49c-3.46,0-4.08.61-4.08,4,0,8.83-.14,17.65.07,26.47a15.33,15.33,0,0,1-2.61,8.91v1.69C43.34,90.43,44.49,91.81,46.6,91.81Zm0-12.53V52.4c0-3,0-3,3-2.95h2V81.56h-5Z"/><path class="cls-2" d="M90.71,72.64a1.06,1.06,0,0,0-.15-.15c-1.63-.9-3.23-2.51-4.89-2.58-6.83-.3-13.69-.1-20.53-.14-1.82,0-2.53.78-2.5,2.56.06,3.53,0,7.06,0,10.58,0,3.81,0,3.82,3.74,3.82H81.13c.59,5.23,3,9.34,5.67,9a10,10,0,0,0-1.53-2.64,5.69,5.69,0,0,1-1.84-6.41,2.67,2.67,0,0,1,1.27,1.4c.78,3.28,2.42,4.86,5.92,5.1a5,5,0,0,0-1.07-1.59c-1-1.09-2.71-2.06-2.9-3.27a7.36,7.36,0,0,0-2.51-4.19,7,7,0,0,1-1.49-1.75,6.21,6.21,0,0,1-.15-2.13c.64.21,1.47.23,1.9.66,1.84,1.82,3.57,3.76,5.42,5.75l1.24-1.39c-3.3-3.79-3.3-3.79-2.62-6.23l1.64,1.4,1-1.11C87.7,75.48,87.7,75.48,88.57,73c1.49,1.44,2.83,2.86,4.3,4.15a5.74,5.74,0,0,1,2,4.85c-.11,4.58,0,9.16,0,13.74l.67.51c.34-.48,1-1,1-1.45.09-2.89.06-5.78,0-8.67C96.47,77.09,97.49,79.44,90.71,72.64ZM64.45,75.11H86.28v.42H64.46Zm21.88,5c-1.66-1.23-3.19-3-5.17-.95-1.22,1.24-.85,3,1.12,5.67H64.46V77.51H86.33Zm-1.22-6.94c-6.49,0-13,0-19.48-.06-.48,0-1-.64-1.45-1l.51-.62H86.14C86.61,72.62,86.48,73.19,85.11,73.19Z"/><path class="cls-2" d="M57.58,53.68c-.22,1.85.27,2.74,2.14,2.59,1.65-.14,3.51.31,2.9-2.56,1.65.12,2.74-.1,2.64-2.07-.09-1.8.12-3.5-2.59-3.1.21-1.78-.29-2.67-2.16-2.52-1.65.13-3.49-.3-2.88,2.64C54.5,48,55.15,50,55,51.7,54.84,53.54,55.83,53.86,57.58,53.68Zm-.08-3.31c1.84.11,1.84-1.09,1.78-3,.82.52,1.64.83,1.61,1.05-.19,1.94,1.12,2,2.37,1.92a2.32,2.32,0,0,1,.21.49c.25,1.21-.6,1-1.35,1.24-.48.12-.78.88-1.15,1.36a4,4,0,0,1-1.33,1.23c-.12-2-.71-3.1-3.44-2.54C56.88,51.17,57.22,50.35,57.5,50.37Z"/><path class="cls-2" d="M82.75,66.44H56.22l-.52.62c.49.35,1,1,1.46,1,8.19.06,16.37,0,24.56,0C83.1,68.11,83.22,67.53,82.75,66.44Z"/><path class="cls-2" d="M55.71,63.68c.48.34,1,1,1.45,1,8.19.06,16.37,0,24.56,0,1.38,0,1.5-.57,1-1.66H56.22Z"/><path class="cls-2" d="M81.72,59.66c-8.19-.06-16.37,0-24.56,0-1.38,0-1.5.57-1,1.66H82.66l.51-.63C82.69,60.3,82.2,59.67,81.72,59.66Z"/><path class="cls-2" d="M93.37,72.53l.54-.52V53.87l-.48-.37c-.37.41-1.06.81-1.06,1.23q-.11,8.25,0,16.51C92.37,71.67,93,72.1,93.37,72.53Z"/><path class="cls-2" d="M82.53,53.7c1.33,0,1.52-.53,1.11-1.65H74.89l-.53.57c.47.36.92,1,1.4,1C78,53.75,80.28,53.65,82.53,53.7Z"/><path class="cls-2" d="M82.41,48.64c-1.48.37-3.61-1.13-4.82,1.57h6C84.18,48.82,83.51,48.36,82.41,48.64Z"/><path class="cls-2" d="M60.58,69.9a32.29,32.29,0,0,0-4.4.07c-.13,0-.18.88-.28,1.42h5.17C60.87,70.76,60.75,69.91,60.58,69.9Z"/><path class="cls-2" d="M56,73.29c0,1.64,0,1.63,3.27,1.58,1,0,2.14.13,1.48-1.58Z"/><path class="cls-2" d="M70.91,81.81c-4.46-.51-4.88-.38-4.55,1.43C71,83.59,71,83.59,70.91,81.81Z"/><path class="cls-2" d="M76.49,83.3c1.1.3,1.76-.19,1.22-1.56h-5C73.25,84.48,75.27,83,76.49,83.3Z"/></g></g></svg>