<svg xmlns="http://www.w3.org/2000/svg" viewBox="0 0 138.9 138.9"><defs><style>.cls-1{fill:#8f7673;}.cls-2{fill:#ba1818;}</style></defs><title>hospital</title><g id="Layer_2" data-name="Layer 2"><g id="Layer_1-2" data-name="Layer 1"><path class="cls-1" d="M69.45,138.9A69.45,69.45,0,1,1,138.9,69.45,69.45,69.45,0,0,1,69.45,138.9ZM69.45.44a69,69,0,1,0,69,69h0A69.09,69.09,0,0,0,69.45.44Z"/><path class="cls-1" d="M70.81,132.83a66.42,66.42,0,1,1,66.45-66.41A66.42,66.42,0,0,1,70.81,132.83ZM70.81.44a66,66,0,1,0,66,66v0A66,66,0,0,0,70.81.44Z"/><path class="cls-1" d="M67.76,132.83a63.37,63.37,0,1,1,63.37-63.37A63.37,63.37,0,0,1,67.76,132.83Zm0-126.27A62.95,62.95,0,1,0,130.7,69.5v0A63,63,0,0,0,67.76,6.52Z"/><path class="cls-2" d="M101.31,71.87H90v-26H78.68V38H60.56v7.89H49.23v26H37.92v30.55H33.46v2.25h72.4v-2.27h-4.55ZM62.9,40.24H76.4V53.73H62.9ZM49.23,102.4h-9V74.2h9Zm27.14,0H62.88V92.29H76.37Zm11.33,0h-9V90H60.59v12.37h-9V48.16h9V56H78.68V48.15h9Zm11.31,0h-9V74.18h9Z"/><path class="cls-2" d="M72,70.72h9v-9H72ZM74.22,64h4.43v4.46H74.22Z"/><path class="cls-2" d="M58.35,84.28h9v-9h-9Zm2.28-6.69h4.44V82H60.63Z"/><path class="cls-2" d="M71.94,84.3h9v-9h-9Zm2.26-6.7h4.47V82H74.2Z"/><path class="cls-2" d="M58.37,70.69h9v-9h-9ZM60.63,64H65.1v4.43H60.63Z"/><path class="cls-2" d="M70.75,42.49H68.48v3.37H65.15v2.28h3.37v3.33h2.27V48.1h3.33V45.83H70.75Z"/></g></g></svg>