<?xml version="1.0" encoding="utf-8"?>
<!-- Generator: Adobe Illustrator 22.0.1, SVG Export Plug-In . SVG Version: 6.00 Build 0)  -->
<svg version="1.1" id="Layer_1" xmlns="http://www.w3.org/2000/svg" xmlns:xlink="http://www.w3.org/1999/xlink" x="0px" y="0px"
	 viewBox="0 0 196.8 160.5" style="enable-background:new 0 0 196.8 160.5;" xml:space="preserve">
<style type="text/css">
	.st0{fill:#FFF503;}
</style>
<g id="Group_8" transform="translate(-41.247 -40.419)">
	<path id="Path_1" class="st0" d="M41.2,199.4v-78.6c0-21.4,7-39,21.1-52.8s33.3-23,57.8-27.7V75c-15.1,3.8-24.7,9.3-28.9,16.7
		C87,99,85,108.7,85,120.9v8.2h35.1v70.4L41.2,199.4z M159.1,199.4v-78.6c0-21.4,7-39,21.1-52.8s33.3-23,57.8-27.7V75
		c-15.1,3.8-24.7,9.3-28.9,16.7c-4.2,7.3-6.3,17.1-6.2,29.2v8.2H238v70.4L159.1,199.4z"/>
</g>
</svg>
