<svg xmlns="http://www.w3.org/2000/svg" viewBox="0 0 486.9 486.9"><defs><style>.cls-1{fill:#fff;}</style></defs><title>Asset 1</title><g id="Layer_2" data-name="Layer 2"><g id="Layer_1-2" data-name="Layer 1"><path class="cls-1" d="M243.45,486.9C109,486.9,0,377.91,0,243.45S109,0,243.45,0,486.9,109,486.9,243.45C486.74,377.84,377.84,486.74,243.45,486.9Zm0-485.36C109.85,1.54,1.54,109.85,1.54,243.45S109.85,485.36,243.45,485.36s241.91-108.3,241.91-241.91h0C485.2,109.91,377,1.7,243.45,1.54Z"/><path class="cls-1" d="M248.21,465.64c-128.58-.08-232.75-104.38-232.67-233S119.92-.08,248.5,0,481.18,104.29,481.18,232.82,376.8,465.58,248.21,465.64Zm0-464.1C120.46,1.51,16.87,105.06,16.84,232.82S120.36,464.17,248.12,464.19,479.47,360.67,479.49,232.91v-.09C479.33,105.15,375.88,1.7,248.21,1.54Z"/><path class="cls-1" d="M237.53,465.64C114.85,465.64,15.4,366.18,15.4,243.5S114.85,21.36,237.53,21.36,459.67,120.82,459.67,243.5,360.16,465.5,237.53,465.64Zm0-442.64C115.67,23,16.89,121.78,16.89,243.64s98.78,220.65,220.64,220.65S458.18,365.5,458.18,243.64v-.14C458.05,121.7,359.34,23,237.53,22.85Z"/></g></g></svg>