<svg xmlns="http://www.w3.org/2000/svg" viewBox="0 0 205.52 147.89"><defs><style>.cls-1{fill:#fff;}.cls-2{fill:#e7323b;}.cls-3{fill:#010101;}.cls-4{fill:#1e344f;}.cls-5{font-size:7.31px;fill:#1d1d1b;font-family:DIN-Bold, DIN;font-weight:700;letter-spacing:0.16em;}.cls-6{letter-spacing:0.15em;}</style></defs><title>LOGOAEA</title><g id="Layer_2" data-name="Layer 2"><g id="Layer_1-2" data-name="Layer 1"><rect class="cls-1" width="205.52" height="147.89"/><rect class="cls-2" x="23.27" y="82.29" width="0.9" height="1.05"/><rect class="cls-2" x="27.05" y="82.29" width="0.9" height="1.05"/><rect class="cls-2" x="30.83" y="82.29" width="0.9" height="1.05"/><polygon class="cls-3" points="33.16 77.56 33.91 77.56 35.92 82.73 37.84 77.56 38.8 77.56 40.7 82.73 42.72 77.56 43.48 77.56 41.23 83.34 40.2 83.34 38.32 78.3 36.43 83.34 35.41 83.34 33.16 77.56"/><polygon class="cls-3" points="44.19 77.56 49.88 77.56 49.88 78.2 44.89 78.2 44.89 80.02 49.67 80.02 49.67 80.66 44.89 80.66 44.89 82.7 49.88 82.7 49.88 83.34 44.19 83.34 44.19 77.56"/><rect class="cls-3" x="50.96" y="77.56" width="0.71" height="5.78"/><path class="cls-3" d="M59.35,81.36v-.29h-3v-.65h3.69v.94c0,.75,0,1.3-.46,1.69a3.31,3.31,0,0,1-2,.36H55.54a3,3,0,0,1-2-.41A2.08,2.08,0,0,1,53,81.29V79.71a2.25,2.25,0,0,1,.55-1.82,3,3,0,0,1,2-.4H57.6c1.75,0,2.42.3,2.42,1.63,0,.09,0,.2,0,.31h-.66v-.09c0-.92-.36-1.22-1.35-1.22H55.24c-.62,0-1,.09-1.24.43a1.85,1.85,0,0,0-.2,1.12V81.2a1.87,1.87,0,0,0,.2,1.12c.23.33.62.43,1.24.43H58c1.17,0,1.37-.3,1.37-1.39"/><polygon class="cls-3" points="61.35 83.34 61.35 77.56 62.07 77.56 62.07 80.05 67.31 80.05 67.31 77.56 68.02 77.56 68.02 83.34 67.31 83.34 67.31 80.68 62.07 80.68 62.07 83.34 61.35 83.34"/><path class="cls-2" d="M77.29,81.9c0-.45-.43-.54-1.35-.54H75c-1,0-1.35.08-1.35.68s.26.75,1.35.75h1c.92,0,1.35-.08,1.35-.53ZM78,80.7v2.64h-.62V82.8c-.24.49-.69.6-1.44.6H74.8c-1.41,0-1.89-.35-1.89-1.33s.51-1.27,1.87-1.27h1.15a1.71,1.71,0,0,1,1.4.49v-.56c0-.74-.37-.92-1.32-.92H75c-.88,0-1.17.06-1.17.56v.11h-.69v-.11c0-.84.54-1.17,1.75-1.17h1.18c1.26,0,1.84.46,1.84,1.5"/><path class="cls-2" d="M79.16,77.56h.65V80c.32-.61,1-.81,2.08-.81,1.61,0,2.25.34,2.25,1.48v2.66H83.5V80.85c0-.39,0-.63-.27-.79a3,3,0,0,0-1.53-.26c-1.32,0-1.89.28-1.89,1.1v2.44h-.65Z"/><path class="cls-2" d="M89.71,80.85v-.09c0-.82-.4-1-1.39-1h-1c-1,0-1.39.24-1.39,1.06Zm.69.27c0,.11,0,.21,0,.32H85.92v.22c0,.85.34,1.16,1.41,1.16h1.06c.9,0,1.33-.21,1.33-.69v0h.68v.11c0,.78-.63,1.2-1.86,1.2H87.32c-1.48,0-2.06-.51-2.06-1.77V81c0-1.27.57-1.78,2.06-1.78h1c1.52,0,2.07.47,2.07,1.92"/><path class="cls-2" d="M95.62,81.9c0-.45-.43-.54-1.34-.54h-1c-1,0-1.35.08-1.35.68s.27.75,1.35.75h1c.91,0,1.34-.08,1.34-.53Zm.66-1.2v2.64h-.62V82.8c-.24.49-.69.6-1.44.6H93.13c-1.41,0-1.89-.35-1.89-1.33s.51-1.27,1.88-1.27h1.14a1.7,1.7,0,0,1,1.4.49v-.56c0-.74-.37-.92-1.32-.92h-1c-.88,0-1.17.06-1.17.56v.11h-.69v-.11c0-.84.54-1.17,1.76-1.17h1.17c1.26,0,1.84.46,1.84,1.5"/><path class="cls-2" d="M101.84,81.52V81c0-1-.33-1.24-1.47-1.24h-.92C98.32,79.79,98,80,98,81v.49c0,1,.33,1.27,1.47,1.27h.92c1.14,0,1.47-.23,1.47-1.27M99.3,83.4c-1.44,0-2-.53-2-1.81V81c0-1.24.55-1.75,2-1.75h1.25a1.39,1.39,0,0,1,1.28.57V77.56h.63v5.78h-.56v-.67c-.26.59-.72.73-1.52.73Z"/><path class="cls-2" d="M110.56,82.79c1.15,0,1.48-.23,1.48-1.27V81c0-1-.34-1.24-1.48-1.24H109.5c-1.14,0-1.48.23-1.48,1.24v.49c0,1,.33,1.27,1.48,1.27Zm-3.19-1.2V81c0-1.24.56-1.75,2-1.75h1.41c1.4,0,2,.51,2,1.75v.64c0,1.28-.53,1.81-2,1.81h-1.41c-1.43,0-2-.53-2-1.81"/><path class="cls-2" d="M114.19,79.83h-.86v-.58h.86V79c0-1,.46-1.4,1.49-1.4h1v.59h-1c-.61,0-.88.17-.88.69v.41h1.9v.58h-1.9v3.51h-.64Z"/><path class="cls-2" d="M124.65,79.25v.55H122V82c0,.8.36.87,1.21.87s1.06-.19,1.06-.82v-.53h.56V82c0,1-.47,1.4-1.77,1.4a1.84,1.84,0,0,1-1.38-.41,1.34,1.34,0,0,1-.3-1.08V79.8h-.87v-.55h.87v-.94H122v.94Z"/><path class="cls-2" d="M125.68,77.56h.65V80c.32-.61,1-.81,2.07-.81,1.62,0,2.26.34,2.26,1.48v2.66H130V80.85c0-.39,0-.63-.27-.79a3,3,0,0,0-1.53-.26c-1.32,0-1.89.28-1.89,1.1v2.44h-.65Z"/><path class="cls-2" d="M136.23,80.85v-.09c0-.82-.4-1-1.39-1h-1c-1,0-1.4.24-1.4,1.06Zm.68.27c0,.11,0,.21,0,.32h-4.47v.22c0,.85.35,1.16,1.41,1.16h1.07c.9,0,1.33-.21,1.33-.69v0h.67v.11c0,.78-.62,1.2-1.85,1.2h-1.23c-1.48,0-2.05-.51-2.05-1.77V81c0-1.27.57-1.78,2.05-1.78h1c1.51,0,2.06.47,2.06,1.92"/><path class="cls-3" d="M142.56,78.19v2.22h3.64c1,0,1.29-.19,1.29-1v-.28c0-.79-.26-1-1.29-1Zm-.72,5.15V77.56H146c1.63,0,2.28.2,2.28,1.37v.7c0,.68-.23,1-1,1.15a1,1,0,0,1,1,1.13v1.43h-.71V82.05c0-.9-.41-1-1.4-1h-3.51v2.27Z"/><polygon class="cls-3" points="149.52 77.56 155.21 77.56 155.21 78.2 150.22 78.2 150.22 80.02 155 80.02 155 80.66 150.22 80.66 150.22 82.7 155.21 82.7 155.21 83.34 149.52 83.34 149.52 77.56"/><path class="cls-3" d="M156.85,81.46c0,.15,0,.26,0,.34,0,.78.5,1,1.69,1H160c1.41,0,1.89-.15,1.89-1.12s-.36-1-1.27-1h-2.44c-1.51,0-2.09-.4-2.09-1.59s.74-1.61,2.49-1.61h1.31a3.63,3.63,0,0,1,2.18.36A1.42,1.42,0,0,1,162.5,79v.17h-.7v-.09c0-.84-.35-1-1.43-1h-2c-1.14,0-1.53.18-1.53,1s.47,1,1.58,1h2.07a3.28,3.28,0,0,1,1.58.23c.44.26.55.69.55,1.41,0,1.32-.64,1.72-2.39,1.72h-2c-1.51,0-2.16-.4-2.16-1.52,0-.12,0-.27,0-.43Z"/><polygon class="cls-3" points="166.2 83.34 166.2 78.2 163.34 78.2 163.34 77.56 169.78 77.56 169.78 78.2 166.92 78.2 166.92 83.34 166.2 83.34"/><rect class="cls-2" x="169.95" y="82.29" width="0.9" height="1.05"/><rect class="cls-2" x="173.73" y="82.29" width="0.9" height="1.05"/><rect class="cls-2" x="177.5" y="82.29" width="0.9" height="1.05"/><polygon class="cls-2" points="85.2 51.22 116.11 51.22 116.11 44.56 94.11 44.56 94.11 38.98 114.83 38.98 114.83 32.59 94.11 32.59 94.11 27 116.11 27 116.11 20.34 85.2 20.34 85.2 51.22"/><path class="cls-2" d="M57.43,39.46l5-12.52h.28l5,12.52ZM56.32,20.35,42.91,51.22h9.84l2-5.09H70.31l2,5.09h9.84L68.9,20.35Z"/><path class="cls-2" d="M134,39.46l5-12.52h.28l5,12.52Zm11.46-19.11H132.9L119.5,51.22h9.85l2-5.09h15.52l2,5.09h9.85Z"/><rect class="cls-3" x="42.72" y="55.33" width="116.24" height="10.96"/><polygon class="cls-1" points="55.45 62.39 59.41 62.39 59.41 63.83 53.64 63.83 53.64 57.88 55.45 57.88 55.45 62.39"/><rect class="cls-1" x="68.22" y="57.88" width="1.82" height="5.95"/><polygon class="cls-1" points="81.11 63.83 79.35 63.83 79.35 57.88 82.03 57.88 84.15 61.6 86.31 57.88 88.95 57.88 88.95 63.83 87.19 63.83 87.19 59.59 84.73 63.83 83.55 63.83 81.11 59.59 81.11 63.83"/><rect class="cls-1" x="98.26" y="57.88" width="1.82" height="5.95"/><polygon class="cls-1" points="113.28 63.83 111.46 63.83 111.46 59.34 108.97 59.34 108.97 57.88 115.77 57.88 115.77 59.34 113.28 59.34 113.28 63.83"/><polygon class="cls-1" points="131.08 59.33 126.39 59.33 126.39 60.23 130.8 60.23 130.8 61.48 126.39 61.48 126.39 62.39 131.15 62.39 131.15 63.83 124.58 63.83 124.58 57.88 131.08 57.88 131.08 59.33"/><path class="cls-1" d="M144.88,59.35H142v3h3.07a1.25,1.25,0,0,0,.85-.23,1,1,0,0,0,.27-.74v-1a.92.92,0,0,0-.33-.77,1.72,1.72,0,0,0-1-.24m.56-1.47a3.24,3.24,0,0,1,2,.48,1.79,1.79,0,0,1,.62,1.52v2a1.87,1.87,0,0,1-.5,1.45,2.22,2.22,0,0,1-1.57.46h-5.75V57.88Z"/><polygon class="cls-4" points="60.51 115.29 60.51 119.5 49.34 119.5 49.34 132.26 60.51 132.26 60.51 136.48 45.25 136.48 45.25 115.29 60.51 115.29"/><path class="cls-4" d="M77,123.72H63.66v12.76H81V115.29H63.66v4.21H77Zm0,8.54h-9.2V128H77Z"/><polygon class="cls-4" points="114.85 115.29 114.85 136.48 110.77 136.48 110.77 119.5 101.63 119.5 101.63 136.48 97.66 136.48 97.66 119.5 88.53 119.5 88.53 136.48 84.45 136.48 84.45 115.29 114.85 115.29"/><path class="cls-4" d="M122.35,128h13.29v-12.7H118.26v21.19h17.38v-4.22H122.35Zm0-8.49h9.2v4.28h-9.2Z"/><path class="cls-4" d="M152.33,123.72H139.05v12.76h17.37V115.29H139.05v4.21h13.28Zm0,8.54h-9.2V128h9.2Z"/><text class="cls-5" transform="translate(72.56 111.22)">P<tspan class="cls-6" x="5.76" y="0">O</tspan><tspan x="11.57" y="0">WERED BY</tspan></text></g></g></svg>